<svg width="150" height="100" viewBox="0 0 150 100" fill="none" xmlns="http://www.w3.org/2000/svg">
<path d="M142.546 2.77356C140.809 1.06175 137.886 0.411698 135.211 0.693389C134.135 0.780062 133.087 0.996747 132.04 1.27844C93.1309 11.2893 54.167 21.2351 15.2306 31.2676C9.19165 32.8711 4.91748 37.5731 5.0002 42.6002C5.24838 58.3749 5.57928 74.1712 5.88261 89.9675C5.93776 93.2394 7.61986 97.0314 11.8389 98.2665C16.0579 99.61 20.3596 97.8548 24.3305 96.8364C61.1435 86.9772 98.0117 77.1398 134.825 67.2806C137.996 66.4789 141.084 64.9837 142.739 62.6219C144.559 60.1083 144.752 57.1398 144.752 54.3228C144.835 39.3933 144.972 24.4854 145.055 9.55579C145.028 7.2156 144.531 4.65872 142.546 2.77356Z" fill="black"/>
<path d="M135.707 0.30336C138.409 1.90735e-06 141.36 0.693393 143.097 2.38353C145.083 4.29036 145.607 6.86891 145.634 9.25244C145.551 24.2904 145.414 39.3283 145.331 54.3662C145.331 57.2048 145.11 60.195 143.29 62.7302C141.636 65.0921 138.52 66.6306 135.321 67.4106C98.2047 77.3348 61.0608 87.2589 23.9444 97.2048C19.9184 98.2232 15.5891 100 11.3425 98.6566C7.0959 97.3998 5.38624 93.5861 5.33108 90.2925C5.02776 74.3662 4.69685 58.4615 4.44868 42.5352C4.36595 37.4865 8.69527 32.7194 14.7618 31.1376C54.0015 21.0401 93.2687 10.9859 132.536 0.888409C133.556 0.606719 134.632 0.390034 135.707 0.30336ZM136.286 1.32178C133.777 1.49513 131.46 2.3402 129.061 2.90358L16.637 31.766C11.8664 32.7627 7.56468 35.6446 6.37895 39.5016C5.38624 42.1885 5.93774 45.0054 5.88259 47.7356C6.15834 61.4518 6.40652 75.1679 6.6547 88.8841C6.62712 91.3976 6.95803 94.1495 9.1089 96.143C11.2873 98.1798 15.0652 98.4615 18.0984 97.6598C57.0899 87.2373 96.0814 76.7931 135.073 66.3705C137.748 65.6771 140.34 64.442 141.856 62.5135C143.649 60.2167 143.897 57.4431 143.952 54.8212C143.98 39.3066 144.283 23.8137 144.228 8.29903C144.366 4.85374 141.305 0.73673 136.286 1.32178Z" fill="white"/>
<path d="M129.558 53.0878C131.378 52.6327 133.143 52.091 134.963 51.6793C135.156 52.026 135.294 52.351 135.404 52.7194C134.053 53.0661 132.701 53.4344 131.35 53.7811C131.736 54.6479 132.095 55.5363 132.481 56.4247C133.584 56.143 134.687 55.8397 135.79 55.558C136.01 55.9047 136.204 56.2514 136.231 56.6414C135.128 56.9447 134.025 57.2264 132.95 57.5298C133.336 58.3965 133.694 59.2849 134.08 60.1517C135.431 59.805 136.783 59.4366 138.134 59.0899C138.327 59.4366 138.492 59.7833 138.547 60.1517C136.755 60.65 134.963 61.1484 133.17 61.5818C131.957 58.7432 130.716 55.9263 129.558 53.0878ZM120.596 55.4279C122.168 55.1463 123.85 54.1062 125.449 54.8862C127.407 55.6013 127.793 57.9198 126.249 59.0682C127.379 60.2167 128.593 61.3218 129.668 62.4919C127.269 63.6186 126.387 60.6284 124.815 59.675C124.539 59.74 124.291 59.8266 124.015 59.8917C124.512 61.1268 125.118 62.3402 125.587 63.597C125.146 63.7053 124.732 63.857 124.291 63.9437C122.967 61.1051 121.809 58.2665 120.596 55.4279ZM122.416 56.143C122.774 57.0097 123.16 57.8982 123.546 58.7866C124.815 58.6782 126.194 57.8115 125.587 56.7064C125.118 55.6446 123.464 55.6663 122.416 56.143ZM111.772 57.8115C113.592 57.3348 115.357 56.8147 117.204 56.403C117.37 56.7497 117.535 57.0747 117.618 57.4431C116.294 57.8115 114.915 58.1582 113.592 58.5265C113.95 59.3933 114.336 60.2817 114.722 61.1701C115.853 60.8884 116.956 60.5417 118.087 60.3034C118.28 60.6501 118.417 60.9751 118.528 61.3434C117.425 61.6685 116.294 61.9502 115.219 62.2318C115.577 63.1203 115.963 63.987 116.349 64.8537C117.7 64.507 119.024 64.1387 120.403 63.8136C120.623 64.1603 120.734 64.507 120.844 64.8537C119.079 65.3738 117.259 65.8071 115.467 66.2839C114.143 63.467 112.958 60.6284 111.772 57.8115ZM104.492 59.9567C105.871 58.7866 108.683 59.2849 109.235 60.8234C108.794 60.9751 108.38 61.0834 107.939 61.1701C107.387 60.0217 104.933 60.325 105.126 61.6251C105.733 63.2286 106.45 64.8104 107.167 66.3922C108.049 67.454 110.2 66.5655 109.759 65.3738C110.2 65.2654 110.614 65.1571 111.055 65.0487C112.406 67.6706 106.919 69.2524 105.733 66.6522C105.236 64.4854 102.451 62.0152 104.492 59.9567ZM98.0117 61.4084C98.4529 61.3001 98.8666 61.1701 99.3354 61.0618C100.631 63.8787 101.79 66.7172 103.003 69.5341C102.589 69.7075 102.148 69.8158 101.679 69.8808C99.9972 68.3424 98.3426 66.7606 96.6605 65.2221C97.4051 67.0206 98.2323 68.8191 98.9493 70.6392C98.5081 70.7476 98.0945 70.8776 97.6257 70.9859C96.3572 68.169 95.1715 65.3304 93.9582 62.5135C94.3718 62.3402 94.813 62.2318 95.2542 62.1235C96.9639 63.662 98.6184 65.2654 100.3 66.8039C99.556 65.0271 98.7287 63.2286 98.0117 61.4084ZM85.0513 64.8537C86.8437 64.377 88.6361 63.8787 90.4285 63.4453C90.6216 63.792 90.7594 64.117 90.8697 64.4854C90.2079 64.7021 89.5461 64.8537 88.8843 65.0271C89.7943 67.1506 90.7043 69.2524 91.5867 71.3543C92.2485 71.1809 92.9103 70.9859 93.5721 70.8342C93.7927 71.1593 93.9306 71.506 94.0409 71.8743C92.2485 72.3727 90.4561 72.8711 88.6637 73.3044C88.4983 72.9577 88.3328 72.611 88.2225 72.2644C88.8843 72.0693 89.5461 71.9177 90.2079 71.7226C89.2979 69.5991 88.388 67.4973 87.478 65.3738C86.8162 65.5471 86.1544 65.7638 85.4925 65.8938C85.2995 65.5905 85.1892 65.2221 85.0513 64.8537ZM80.3911 66.0888C80.8323 65.9155 81.3011 65.8288 81.7699 65.7421C82.3214 68.7541 82.8453 71.766 83.3141 74.7779C82.928 74.9296 82.4868 75.0379 82.0456 75.1029C80.0878 72.481 78.2127 69.8158 76.31 67.1939C76.7788 67.0856 77.2475 66.7606 77.7715 66.9122C78.9848 68.4507 79.9499 70.1192 81.2735 71.5926C81.0805 69.7508 80.6669 67.9307 80.3911 66.0888ZM66.631 67.9307C73.0561 67.2589 78.2954 73.1744 75.2621 77.6598C72.7803 82.2752 63.7908 82.9036 60.3163 78.6999C56.3179 74.6912 60.1784 68.1257 66.631 67.9307ZM66.052 68.3424C61.8881 68.8191 58.6894 72.091 59.2409 75.3846C59.5718 78.4832 63.129 81.1051 67.0998 81.1701C72.6149 81.4951 77.1648 76.7064 75.1794 72.6544C73.9661 69.7508 69.8849 67.779 66.052 68.3424Z" fill="white"/>
<path d="M67.348 70.8992C65.8313 70.5742 67.0446 67.584 68.2028 69.2741C67.0446 68.7107 66.9895 69.7075 67.1549 70.5309C67.2377 70.5526 67.4307 70.6176 67.5134 70.6392C67.5961 70.5742 67.734 70.4659 67.8443 70.4009L67.4583 70.3575C67.4583 70.2925 67.4858 70.1409 67.4858 70.0758H68.2304C68.2028 70.4659 67.9546 70.9643 67.348 70.8992ZM64.232 69.2741C64.6732 69.1441 65.0868 69.0141 65.528 68.9058C65.5556 68.9708 65.6107 69.1224 65.6383 69.1658C65.528 69.1874 65.2798 69.2741 65.1695 69.3175C65.3901 69.8158 65.6107 70.3142 65.8589 70.7909C65.9968 70.7476 66.1898 70.7042 66.3277 70.6609C66.3553 70.7259 66.4104 70.8776 66.4656 70.9209C66.0243 71.0509 65.5556 71.1809 65.0868 71.2893C65.0316 71.0509 65.1695 70.8993 65.4728 70.8559C65.2522 70.3575 65.0316 69.8808 64.811 69.3825C64.6732 69.4041 64.425 69.4691 64.3147 69.4908L64.232 69.2741ZM68.3683 71.0076C68.9198 70.4009 69.1955 69.2741 70.1055 69.0791C69.8297 69.7942 70.1055 70.7909 69.4713 71.2893C69.4437 71.1809 69.3885 70.9643 69.3334 70.8559C69.0025 70.7909 68.6992 70.9643 68.3683 71.0076ZM62.1087 70.4225C62.4671 70.1625 62.8532 69.9242 63.2392 69.7075C63.4599 69.9242 63.2944 70.0758 63.0462 70.2275C63.3771 70.7692 64.6732 71.2676 64.2871 71.8743C63.7356 71.3976 63.2392 70.8776 62.7429 70.4009C62.605 70.4875 62.4671 70.5742 62.3568 70.6609C62.2741 70.5742 62.1638 70.4875 62.1087 70.4225ZM69.94 71.4193C70.5191 70.8342 71.0982 70.2275 71.7049 69.6641C71.9806 69.8375 71.9806 70.0542 71.9255 70.3142C72.2012 70.2059 72.5046 70.1625 72.7803 70.3359C72.2012 70.9209 71.6221 71.506 71.0155 72.0693C70.5191 71.571 71.7876 71.0943 72.0358 70.6176C71.8427 70.6826 71.6497 70.7259 71.4843 70.7909C71.5118 70.6826 71.5394 70.4442 71.567 70.3142C70.9603 70.6176 70.657 71.6793 69.94 71.4193ZM73.2491 71.2893L73.58 71.1376C73.7179 71.4843 74.6278 71.961 74.0212 72.2427C73.9385 72.156 73.8006 71.9827 73.7454 71.896C73.1939 72.156 72.6148 72.4377 72.0633 72.7194C72.1461 72.8061 72.2564 72.9794 72.3391 73.0661C72.2564 73.0878 72.0909 73.1744 72.0082 73.1961C71.8979 72.8494 70.9879 72.3727 71.567 72.091C71.6497 72.1777 71.7876 72.351 71.8427 72.4377C72.3942 72.1777 72.9733 71.896 73.5248 71.6143C73.4421 71.506 73.3594 71.4193 73.2491 71.2893ZM60.8402 71.701C60.8953 71.636 61.0056 71.5276 61.0608 71.441C61.695 71.7877 62.3568 72.156 62.9911 72.5244L63.5701 71.8743C63.6529 71.9177 63.7907 71.9827 63.8735 72.026C63.5977 72.3294 63.3495 72.6327 63.0738 72.9361C62.3293 72.546 61.5847 72.1127 60.8402 71.701ZM60.0957 72.8277C60.7575 72.416 63.6805 73.0878 62.3844 74.0412C61.6399 74.0195 60.0957 73.9762 59.9302 73.3695C60.7299 73.3695 61.7502 74.0412 62.3844 73.6295C62.0811 73.0011 60.8126 73.1744 60.0957 72.8277ZM72.0909 73.4345C73.0009 73.2828 73.9109 73.1311 74.8484 73.0011C74.8484 73.5861 73.8006 73.6728 73.3594 74.0412C73.9109 73.9545 74.4624 73.8678 74.9863 73.7812C75.0139 73.8462 75.069 73.9978 75.069 74.0628C74.1315 74.1279 73.1388 74.5829 72.2012 74.3662C72.6424 73.9762 73.2491 73.7595 73.773 73.4561C73.2215 73.5211 72.6976 73.6295 72.1461 73.7161C72.1461 73.6511 72.1185 73.4995 72.0909 73.4345ZM64.6732 73.4778C65.1971 73.3695 66.8792 73.5861 65.528 73.7812V75.623H65.1695V73.7595H64.6732V73.4778ZM66.5483 73.4778H66.9068V74.3879H67.5686V73.4778H67.927C67.7616 74.1929 68.2579 75.1896 67.6237 75.688C67.5686 75.363 67.5686 75.0163 67.5686 74.6912H66.9068C66.9068 75.0379 66.9068 75.363 66.8792 75.688C66.1898 75.1896 66.6862 74.1929 66.5483 73.4778ZM68.451 73.4778H69.8573V73.7595H68.8095V74.4095H69.6643V74.7129H68.8095V75.363H69.8573V75.6446H68.4786C68.4234 74.9079 68.5061 74.1929 68.451 73.4778ZM49.5619 75.8397C49.3964 73.3911 54.2773 72.7411 55.1597 75.1029C54.7461 75.2763 54.3048 75.3846 53.8361 75.493C53.1743 74.0412 50.1961 74.9729 51.1888 76.3814C52.5676 77.4215 54.7461 77.5515 56.2627 78.4615C57.4484 79.3499 57.4209 81.0401 56.0972 81.8418C54.6633 82.8819 52.0713 82.2969 51.5473 80.8451C51.9885 80.7151 52.4297 80.5851 52.8709 80.4984C53.5603 81.9718 56.5109 80.9317 55.4906 79.5666C53.6706 78.2232 49.6998 78.3749 49.5619 75.8397ZM59.7372 74.6912C60.6472 74.6046 61.6123 74.5829 62.5223 74.5179V74.8212C61.8329 74.8429 61.1711 74.8862 60.4817 74.9296C60.6747 74.9946 60.8678 75.1029 61.0608 75.1679C60.9229 75.2329 60.6747 75.3846 60.5369 75.4496C61.2262 75.428 61.9156 75.3846 62.605 75.3413V75.623C61.695 75.6663 60.785 75.7313 59.9026 75.7963C59.8751 75.7313 59.8751 75.5796 59.8751 75.493C60.0129 75.4063 60.1784 75.3196 60.3163 75.2329C60.0129 75.1029 59.7923 74.9513 59.7372 74.6912ZM73.1939 75.9913C71.7324 76.0347 72.2839 74.3662 73.5524 74.9079C74.7657 74.6046 75.6481 76.0347 74.1315 76.1213C74.2142 75.8397 74.5727 75.688 74.6554 75.4063C74.0763 75.298 72.2839 74.7779 72.7251 75.688C72.863 75.623 73.1388 75.4713 73.2767 75.3846C73.2767 75.5796 73.2491 75.7747 73.1939 75.9913ZM44.0468 75.7097C44.488 75.5796 44.9292 75.4496 45.3705 75.3413C46.3632 77.6165 47.411 79.8917 48.2659 82.2102C48.7071 84.4637 44.488 85.6555 42.999 83.727C41.8684 81.4735 40.986 79.1116 39.9657 76.7931C40.4069 76.6631 40.8481 76.5331 41.3169 76.4464C42.3096 78.6349 43.192 80.8451 44.1847 83.0553C44.8741 84.052 47.1077 83.4453 46.7768 82.2969C45.9495 80.0867 44.9292 77.9198 44.0468 75.7097ZM64.0665 76.3597C64.4801 76.6847 64.8662 77.0314 65.2798 77.3998C65.1971 77.4648 65.0041 77.5731 64.9213 77.6381C64.7835 77.5298 64.618 77.3781 64.4801 77.2698C63.7356 77.8115 62.9911 78.3532 62.219 78.8732C62.1362 78.8082 61.9984 78.6566 61.9156 78.5916C62.6602 78.0498 63.4047 77.5298 64.1492 76.9881L63.7356 76.5981C63.8183 76.5547 63.9838 76.4247 64.0665 76.3597ZM70.3261 76.8147C70.4088 76.7497 70.6019 76.5981 70.7122 76.5547C71.5118 77.2264 72.3115 77.8765 73.1112 78.5266L72.7803 78.7866C72.1461 78.3099 71.567 77.7898 70.9603 77.3131C70.9879 77.4648 71.0982 77.7682 71.1534 77.9198C70.8776 77.8548 70.6294 77.8115 70.3537 77.7465C70.9603 78.2449 71.567 78.7432 72.1736 79.2633L71.8427 79.5233C71.0431 78.8732 70.2158 78.2015 69.4437 77.5515C69.5264 77.4865 69.7194 77.3348 69.7746 77.2698C70.0228 77.3131 70.2709 77.3781 70.5191 77.4431C70.4364 77.2048 70.3812 77.0098 70.3261 76.8147ZM72.9182 77.2048C71.8152 76.8147 73.4421 76.0563 73.3318 76.9881C73.2215 77.0531 73.0285 77.1614 72.9182 77.2048ZM31.3071 79.0683C33.0994 78.5699 34.8643 78.1148 36.6567 77.6381C36.8773 77.9848 37.0151 78.3315 37.1254 78.6999C36.4636 78.8732 35.8018 79.0466 35.14 79.2416C36.1879 81.7335 37.3185 84.182 38.3112 86.6739C37.87 86.7822 37.4563 86.9122 36.9876 87.0206C35.8294 84.5721 34.8367 82.0585 33.7613 79.5883C33.0994 79.7617 32.4376 79.9783 31.7483 80.1083C31.5552 79.7833 31.3898 79.4366 31.3071 79.0683ZM65.5004 77.5298C66.0519 77.6598 66.631 77.7898 67.1825 77.9415L67.0722 78.2882C66.6586 78.1799 66.2174 78.0932 65.8037 77.9848L65.4728 78.7649C65.8038 78.8516 66.1622 78.9383 66.5207 79.0249C66.4931 79.1116 66.4104 79.2849 66.3828 79.3716C66.0519 79.3066 65.6935 79.1983 65.335 79.1116C65.2522 79.3716 65.1144 79.6533 65.0316 79.8917C65.4453 80 65.8589 80.1083 66.2725 80.195C66.245 80.2817 66.1898 80.455 66.1347 80.5417C65.5831 80.4117 65.0041 80.2817 64.4526 80.13C64.811 79.2633 65.1419 78.3965 65.5004 77.5298ZM68.0925 77.7898C68.2028 77.7898 68.4234 77.7682 68.5061 77.7682C68.9749 78.6132 69.4988 79.4583 69.94 80.3034C69.6091 80.4117 69.3885 80.325 69.2507 80.065C69.0576 80.0867 68.8646 80.13 68.6716 80.1517C68.7543 80.4334 68.5613 80.5851 68.2304 80.6067C68.1752 79.675 68.1201 78.7432 68.0925 77.7898ZM68.6164 78.8299C68.6164 79.1549 68.644 79.4583 68.644 79.7833C68.7543 79.7617 69.0025 79.7183 69.1404 79.6966C68.9473 79.4366 68.8095 79.1333 68.6164 78.8299ZM26.0126 80.5634C26.4262 80.39 26.8399 80.3034 27.2811 80.2167C29.1838 82.8386 31.114 85.4605 32.9891 88.0823C32.5479 88.234 32.0792 88.364 31.5828 88.4507C31.3622 88.1257 31.1416 87.8223 30.8934 87.4973C30.1489 87.649 29.4319 87.844 28.715 88.0607C28.7701 88.429 28.8528 88.7974 28.8804 89.1658C28.4392 89.2958 27.998 89.4258 27.5568 89.5125C26.9777 86.5655 26.5365 83.5536 26.0126 80.5634ZM28.1083 83.7053C28.0807 84.7671 28.3841 85.8288 28.5495 86.8906C29.0735 86.7822 29.5974 86.6306 30.0937 86.4789C29.5147 85.5255 28.8528 84.5937 28.1083 83.7053ZM19.2015 82.2752C19.6427 82.1669 20.0563 82.0368 20.4975 81.9285C21.766 84.7454 22.9517 87.584 24.165 90.4442C23.7238 90.5742 23.3102 90.7042 22.8414 90.7909C21.1318 89.2524 19.4772 87.6706 17.7952 86.1105C18.5397 87.909 19.3669 89.7292 20.0839 91.5493C19.6427 91.6576 19.2291 91.7877 18.7603 91.896C17.4643 89.0791 16.3061 86.2405 15.0928 83.4236C15.5064 83.2503 15.9476 83.1636 16.4164 83.0769C18.1261 84.6371 19.7806 86.2189 21.4627 87.7573C20.7457 85.9155 19.8909 84.117 19.2015 82.2752Z" fill="white"/>
<path d="M136.286 1.32178C141.305 0.736728 144.393 4.83207 144.228 8.32069C144.255 23.8353 144.007 39.3283 143.952 54.8429C143.924 57.4865 143.676 60.2383 141.856 62.5352C140.34 64.4637 137.72 65.6771 135.073 66.3922C96.0813 76.8147 57.0898 87.2589 18.0983 97.6815C15.0374 98.4832 11.2321 98.2015 9.10876 96.1647C6.95789 94.1712 6.65456 91.4193 6.65456 88.9057C6.37881 75.1679 6.13063 61.4518 5.88245 47.7356C5.9376 44.9837 5.41367 42.1668 6.37881 39.5016C7.59212 35.6446 11.8663 32.7627 16.6644 31.766C54.1116 22.1235 91.5865 12.5244 129.034 2.92524C131.433 2.36186 133.777 1.49512 136.286 1.32178ZM114.391 12.5677C114.474 26.0238 114.722 39.5016 114.86 52.9794C121.23 51.441 127.517 49.6425 133.887 47.974C133.915 34.4312 134.108 20.8884 134.025 7.34561C127.49 9.07909 120.954 10.8342 114.391 12.5677ZM92.7998 18.2015C92.7998 22.7086 92.8274 27.2156 92.8549 31.7226C99.3076 38.2015 105.65 44.7671 112.158 51.1809C112.24 38.5265 112.02 25.8288 111.827 13.1528C105.484 14.8429 99.1421 16.533 92.7998 18.2015ZM71.2083 24.052C71.2911 28.3424 71.2911 32.6111 71.4289 36.9014C74.4622 40.2384 77.6885 43.467 80.8321 46.7606C77.7437 47.6273 74.6553 48.429 71.5944 49.2958C71.622 51.961 71.6771 54.6045 71.7047 57.2481C76.8337 55.9913 81.9075 54.5612 87.009 53.2178C88.8841 55.1246 90.7041 57.0747 92.5516 58.9816C98.8939 57.2698 105.291 55.623 111.606 53.8678C101.072 43.1636 90.511 32.481 79.9221 21.8202C76.9992 22.4485 74.1037 23.2936 71.2083 24.052ZM50.0581 29.7291C50.196 34.5829 50.3338 39.4583 50.5269 44.312C56.621 50.5742 62.9082 56.7497 69.085 62.9686C69.4159 62.7952 69.2781 62.4702 69.3056 62.2318C69.085 49.7508 69.0023 37.2698 68.7541 24.7887C62.5221 26.3705 56.2901 28.0823 50.0581 29.7291ZM14.8996 39.1766C15.0099 52.6761 15.0926 66.1538 15.2856 79.6533C21.6555 77.9848 28.0254 76.273 34.3677 74.5829C34.4229 61.0401 34.5608 47.519 34.5332 33.9545C27.9703 35.6663 21.4625 37.4431 14.8996 39.1766ZM37.0701 34.2145C37.015 42.0585 36.9598 49.9025 36.9598 57.7465C41.041 62.0152 45.2048 66.2405 49.3687 70.4659C55.6834 68.7541 62.0258 67.1289 68.3405 65.3954C58.2479 55.1029 47.9624 44.9404 37.8146 34.6912C37.594 34.4962 37.401 34.2795 37.0701 34.2145ZM129.558 53.0878C130.716 55.9047 131.957 58.7216 133.17 61.5601C134.99 61.1268 136.755 60.6284 138.547 60.13C138.464 59.7616 138.299 59.4149 138.134 59.0682C136.782 59.3933 135.431 59.7833 134.08 60.13C133.694 59.2633 133.335 58.3749 132.949 57.5081C134.052 57.2048 135.155 56.9231 136.231 56.6197C136.203 56.2297 136.01 55.883 135.79 55.5363C134.687 55.818 133.584 56.1213 132.481 56.403C132.095 55.5363 131.736 54.6479 131.35 53.7595C132.701 53.4128 134.052 53.0444 135.404 52.6977C135.293 52.351 135.155 51.9827 134.962 51.6576C133.142 52.1127 131.35 52.6327 129.558 53.0878ZM120.596 55.428C121.809 58.2665 122.967 61.1268 124.291 63.9437C124.732 63.8353 125.146 63.7053 125.587 63.597C125.118 62.3402 124.539 61.1268 124.015 59.8917C124.291 59.8266 124.539 59.74 124.815 59.675C126.387 60.6284 127.269 63.6403 129.668 62.4919C128.565 61.3218 127.379 60.2167 126.249 59.0682C127.82 57.9198 127.407 55.6013 125.449 54.8862C123.85 54.0845 122.167 55.1463 120.596 55.428ZM111.772 57.8115C112.985 60.6284 114.143 63.467 115.412 66.2839C117.204 65.8071 118.996 65.3738 120.789 64.8537C120.678 64.507 120.541 64.1387 120.348 63.8136C118.996 64.1387 117.645 64.5287 116.294 64.8537C115.908 63.987 115.522 63.0986 115.163 62.2318C116.266 61.9285 117.397 61.6685 118.472 61.3434C118.39 60.9967 118.224 60.6284 118.031 60.3034C116.873 60.5417 115.798 60.8884 114.667 61.1701C114.309 60.3034 113.922 59.4149 113.536 58.5265C114.86 58.1798 116.239 57.8331 117.562 57.4431C117.48 57.0964 117.314 56.7497 117.149 56.403C115.356 56.8147 113.564 57.3348 111.772 57.8115ZM104.492 59.9567C102.451 62.0368 105.236 64.507 105.705 66.6739C106.891 69.2741 112.378 67.6923 111.027 65.0704C110.586 65.1571 110.172 65.2871 109.731 65.3954C110.172 66.5872 108.021 67.4756 107.139 66.4139C106.422 64.8321 105.705 63.2503 105.098 61.6468C104.878 60.3467 107.332 60.0433 107.911 61.1918C108.352 61.0834 108.793 60.9751 109.207 60.8451C108.683 59.2633 105.87 58.7649 104.492 59.9567ZM98.0115 61.4084C98.7285 63.2286 99.5833 65.0271 100.3 66.8472C98.6182 65.2871 96.9637 63.7053 95.254 62.1668C94.8128 62.2752 94.3716 62.3835 93.958 62.5569C95.1713 65.3738 96.3294 68.2123 97.6255 71.0292C98.0667 70.9209 98.5079 70.8126 98.9491 70.6825C98.2597 68.8624 97.4049 67.0639 96.6603 65.2654C98.3424 66.8039 99.9694 68.3857 101.679 69.9242C102.12 69.8591 102.589 69.7508 103.003 69.5775C101.789 66.7606 100.631 63.9003 99.3351 61.1051C98.8939 61.1701 98.4527 61.3001 98.0115 61.4084ZM85.0511 64.8537C85.1614 65.2004 85.3269 65.5688 85.4923 65.8938C86.1817 65.7638 86.816 65.5688 87.4778 65.3738C88.3877 67.4973 89.2977 69.5991 90.2077 71.7226C89.5459 71.896 88.8841 72.0693 88.2223 72.2644C88.3602 72.611 88.498 72.9794 88.6635 73.3044C90.4835 72.8711 92.2483 72.3944 94.0407 71.8743C93.9304 71.5276 93.7649 71.1593 93.5719 70.8342C92.8825 70.9859 92.2483 71.1809 91.5865 71.3543C90.6765 69.2308 89.7665 67.1289 88.8841 65.0271C89.5459 64.8537 90.2077 64.6804 90.8695 64.4854C90.7592 64.1387 90.5938 63.7703 90.4283 63.4453C88.6359 63.8787 86.8435 64.377 85.0511 64.8537ZM80.3909 66.0888C80.6667 67.9307 81.0803 69.7508 81.2457 71.571C79.9221 70.0975 78.957 68.429 77.7437 66.8906C77.2473 66.7389 76.751 67.0856 76.2822 67.1723C78.2125 69.8158 80.06 72.4594 82.0179 75.0813C82.4591 75.0163 82.8727 74.9079 83.2863 74.7562C82.8175 71.7443 82.2936 68.7324 81.7421 65.7205C81.3009 65.8288 80.8597 65.9155 80.3909 66.0888ZM66.6308 67.9307C60.1782 68.1473 56.3177 74.6912 60.3161 78.6999C63.7906 82.9252 72.7801 82.2969 75.2619 77.6598C78.2952 73.1528 73.0283 67.2373 66.6308 67.9307ZM49.5617 75.8397C49.6996 78.3532 53.6704 78.2015 55.4628 79.5233C56.4831 80.8884 53.5326 81.9285 52.8432 80.455C52.402 80.5634 51.9332 80.6717 51.5196 80.8017C52.0435 82.2752 54.6356 82.8386 56.0695 81.7985C57.3931 80.9967 57.4207 79.3066 56.235 78.4182C54.7183 77.5081 52.5123 77.3781 51.1611 76.338C50.1684 74.9296 53.1465 74.0195 53.8083 75.4496C54.2495 75.3413 54.7183 75.2329 55.1319 75.0596C54.2771 72.7627 49.3963 73.3911 49.5617 75.8397ZM44.0467 75.7096C44.9291 77.9198 45.9218 80.0867 46.8318 82.2969C47.1351 83.4453 44.9291 84.052 44.2397 83.0553C43.2194 80.8667 42.337 78.6565 41.3719 76.4464C40.9031 76.5114 40.4619 76.663 40.0207 76.7931C41.0134 79.1116 41.9234 81.4518 43.054 83.727C44.543 85.6555 48.7896 84.4637 48.3208 82.2102C47.466 79.8917 46.4181 77.6165 45.4254 75.3413C44.9291 75.4496 44.4879 75.5796 44.0467 75.7096ZM31.3069 79.0683C31.3896 79.4366 31.5551 79.7833 31.7205 80.1083C32.4099 79.9783 33.0441 79.7833 33.7335 79.5883C34.8365 82.0585 35.8017 84.572 36.9598 87.0206C37.401 86.9122 37.8422 86.8039 38.2834 86.6739C37.2907 84.182 36.1877 81.7118 35.1123 79.2416C35.7741 79.0682 36.4359 78.8949 37.0977 78.6999C36.9874 78.3315 36.8495 77.9848 36.6289 77.6381C34.8641 78.1148 33.0993 78.5915 31.3069 79.0683ZM26.0124 80.5634C26.5088 83.5753 26.9776 86.5655 27.5842 89.5558C28.0254 89.4474 28.4666 89.3391 28.9078 89.2091C28.8802 88.8407 28.8251 88.4724 28.7424 88.104C29.4593 87.8873 30.1763 87.6923 30.9208 87.5406C31.1414 87.844 31.3896 88.169 31.6102 88.494C32.079 88.3857 32.5478 88.2774 33.0165 88.1257C31.1414 85.4821 29.2387 82.8819 27.3085 80.26C26.8673 80.2817 26.426 80.39 26.0124 80.5634ZM19.2013 82.2752C19.8907 84.117 20.7455 85.8938 21.4901 87.714C19.808 86.1538 18.1535 84.572 16.4438 83.0336C16.0026 83.1203 15.5338 83.2069 15.1202 83.3803C16.3335 86.1972 17.4917 89.0574 18.7877 91.8526C19.2289 91.7443 19.6701 91.6143 20.1113 91.506C19.3943 89.6858 18.5671 87.8873 17.8226 86.0672C19.5046 87.6273 21.1592 89.2091 22.8688 90.7476C23.31 90.6609 23.7512 90.5309 24.1924 90.4009C22.9791 87.5623 21.7934 84.7237 20.5249 81.8852C20.0837 82.0585 19.6149 82.1668 19.2013 82.2752Z" fill="black"/>
<path d="M122.416 56.143C123.463 55.6663 125.118 55.6446 125.587 56.7064C126.166 57.8115 124.787 58.6349 123.546 58.7866C123.16 57.8982 122.802 57.0097 122.416 56.143ZM66.0517 68.3424C69.8847 67.779 73.9658 69.7075 75.1516 72.6327C77.137 76.6847 72.5871 81.4735 67.072 81.1484C63.1012 81.1051 59.5439 78.4615 59.213 75.3629C58.6891 72.1127 61.8878 68.8407 66.0517 68.3424ZM67.3478 70.8992C67.9544 70.9642 68.2026 70.4659 68.1474 70.0758H67.4029C67.4029 70.1408 67.3753 70.2925 67.3753 70.3575L67.7614 70.4009C67.6787 70.4659 67.5408 70.5742 67.4305 70.6392C67.3478 70.6176 67.1547 70.5525 67.072 70.5309C66.9066 69.7075 66.9617 68.7324 68.1199 69.2741C67.0444 67.6056 65.8311 70.5742 67.3478 70.8992ZM64.2317 69.2741L64.3145 69.5341C64.4523 69.5125 64.7005 69.4475 64.8108 69.4258C65.0314 69.9242 65.252 70.4009 65.4726 70.8992C65.1417 70.9426 65.0039 71.0726 65.0866 71.3326C65.5554 71.2243 65.9966 71.0943 66.4653 70.9642C66.4378 70.8992 66.3826 70.7476 66.3275 70.7042C66.1896 70.7476 65.9966 70.7909 65.8587 70.8342C65.6381 70.3359 65.4175 69.8591 65.1693 69.3608C65.2796 69.3391 65.5278 69.2524 65.6381 69.2091C65.6105 69.1441 65.5554 68.9924 65.5278 68.9491C65.0866 69.0357 64.6454 69.1441 64.2317 69.2741ZM68.368 71.0076C68.6989 70.9859 69.0023 70.7909 69.3608 70.8776C69.3883 70.9859 69.4435 71.2026 69.4986 71.3109C70.1329 70.8126 69.8847 69.7941 70.1329 69.1008C69.1677 69.2741 68.9195 70.4009 68.368 71.0076ZM62.1084 70.4225C62.1636 70.4875 62.3015 70.5959 62.3566 70.6392C62.4945 70.5525 62.6324 70.4659 62.7427 70.3792C63.239 70.8776 63.7354 71.3759 64.2869 71.8526C64.673 71.2676 63.3769 70.7476 63.046 70.2059C63.2942 70.0542 63.4321 69.9025 63.239 69.6858C62.853 69.9242 62.4669 70.1842 62.1084 70.4225ZM69.9398 71.4193C70.6844 71.6793 70.9877 70.5959 71.5392 70.3142C71.5116 70.4225 71.484 70.6609 71.4565 70.7909C71.6495 70.7259 71.8425 70.6826 72.008 70.6175C71.7598 71.0943 70.4913 71.571 70.9877 72.0693C71.6219 71.506 72.1734 70.9209 72.7525 70.3359C72.4768 70.1625 72.201 70.2059 71.8977 70.3142C71.9528 70.0542 71.9804 69.8158 71.6771 69.6641C71.0704 70.2492 70.5189 70.8559 69.9398 71.4193ZM73.2489 71.2893C73.3316 71.3976 73.4143 71.5276 73.5246 71.636C72.9731 71.896 72.394 72.1777 71.8425 72.4594C71.7598 72.3727 71.6219 72.1993 71.5668 72.1127C70.9601 72.3944 71.8977 72.8711 72.008 73.2178C72.0907 73.1961 72.2562 73.1094 72.3389 73.0878C72.2562 73.0011 72.1459 72.8277 72.0631 72.7411C72.6146 72.481 73.1937 72.1993 73.7452 71.9177C73.828 72.0043 73.9658 72.1777 74.021 72.2644C74.6276 71.9827 73.7176 71.506 73.5798 71.1593L73.2489 71.2893ZM60.84 71.701C61.5845 72.1127 62.3566 72.5244 63.0736 72.9361C63.3493 72.6327 63.5975 72.3294 63.8733 72.026C63.7905 71.9827 63.6527 71.9177 63.5699 71.8743L62.9909 72.5244C62.3566 72.156 61.6948 71.8093 61.0606 71.4409C60.9779 71.5276 60.8951 71.6576 60.84 71.701ZM60.0955 72.8277C60.7848 73.1744 62.0809 73.0011 62.3842 73.6078C61.75 74.0412 60.7297 73.3694 59.93 73.3478C60.123 73.9328 61.6397 74.0195 62.3842 74.0195C63.7078 73.1094 60.7573 72.416 60.0955 72.8277ZM72.0907 73.4345C72.1183 73.4995 72.1459 73.6511 72.1734 73.7161C72.7249 73.6295 73.2489 73.5428 73.8004 73.4561C73.2764 73.7595 72.6422 73.9762 72.2286 74.3662C73.1386 74.5829 74.1589 74.1278 75.0964 74.0628C75.0688 73.9978 75.0137 73.8462 75.0137 73.7811C74.4622 73.8678 73.9107 73.9545 73.3867 74.0412C73.8279 73.6728 74.8758 73.5861 74.8758 73.0011C73.9107 73.1311 73.0007 73.2828 72.0907 73.4345ZM64.6729 73.4778V73.7595H65.1693V75.623H65.5278V73.7811C66.879 73.6078 65.1969 73.3694 64.6729 73.4778ZM66.5481 73.4778C66.7135 74.1928 66.1896 75.1896 66.8514 75.688C66.9065 75.3629 66.9065 75.0162 66.879 74.6912H67.5408C67.5408 75.0162 67.5408 75.3629 67.5959 75.688C68.2577 75.1679 67.7338 74.1712 67.8993 73.4778H67.5408V74.3879H66.879V73.4778H66.5481ZM68.4508 73.4778C68.5059 74.1928 68.4232 74.9079 68.4783 75.623H69.8571V75.3413H68.8092V74.6912H69.6641V74.3879H68.8092V73.7378H69.8571V73.4561C69.3883 73.4778 68.9195 73.4778 68.4508 73.4778ZM59.737 74.6912C59.7645 74.9512 60.0127 75.1029 60.3161 75.1896C60.1782 75.2763 60.0127 75.3629 59.8748 75.4496C59.9024 75.5146 59.9024 75.6663 59.9024 75.753C60.8124 75.7096 61.7224 75.6446 62.6048 75.5796V75.2979C61.9154 75.3196 61.226 75.3629 60.5367 75.4063C60.6745 75.3413 60.9227 75.1896 61.0606 75.1246C60.8676 75.0596 60.6745 74.9512 60.4815 74.8862C61.1709 74.8646 61.8327 74.8212 62.5221 74.7779V74.4745C61.5845 74.5612 60.6745 74.6045 59.737 74.6912ZM73.1937 75.9913C73.2213 75.7746 73.2764 75.6013 73.304 75.3846C73.1661 75.4496 72.8904 75.6013 72.7525 75.688C72.3113 74.7779 74.0761 75.2979 74.6828 75.4063C74.6001 75.7096 74.2416 75.8397 74.1589 76.1213C75.7031 76.0563 74.7931 74.6045 73.5798 74.9079C72.2837 74.3662 71.7322 76.0347 73.1937 75.9913ZM64.0663 76.3597C63.9836 76.4247 63.8181 76.533 63.7354 76.6197C63.8733 76.7281 64.0111 76.8797 64.149 77.0098C63.4045 77.5515 62.66 78.0715 61.9154 78.6132C61.9981 78.6782 62.136 78.8299 62.2187 78.8949C62.9633 78.3532 63.7354 77.8115 64.4799 77.2914C64.6178 77.3998 64.7833 77.5515 64.9211 77.6598C65.0039 77.5948 65.1969 77.4865 65.2796 77.4214C64.866 77.0531 64.4799 76.6847 64.0663 76.3597ZM70.3259 76.8147C70.381 77.0098 70.4362 77.1831 70.4913 77.3781C70.2432 77.3131 69.995 77.2698 69.7468 77.2048C69.6641 77.2698 69.4711 77.4214 69.4159 77.4865C70.2156 78.1582 71.0153 78.8082 71.815 79.4583L72.1459 79.1983C71.5116 78.6999 70.9325 78.2015 70.3259 77.6815C70.6016 77.7465 70.8498 77.7898 71.1256 77.8548C71.098 77.7031 70.9877 77.3998 70.9325 77.2481C71.5668 77.7248 72.1459 78.2449 72.7525 78.7216L73.0834 78.4615C72.2837 77.7898 71.4565 77.1398 70.6844 76.4897C70.6016 76.598 70.4086 76.7497 70.3259 76.8147ZM72.918 77.2048C73.0007 77.1614 73.2489 77.0531 73.3316 76.9881C73.4419 76.078 71.8425 76.7931 72.918 77.2048ZM65.5002 77.5298C65.1417 78.3965 64.8108 79.2633 64.4523 80.13C65.0039 80.2817 65.5829 80.4117 66.1344 80.5417C66.162 80.455 66.2172 80.2817 66.2723 80.195C65.8587 80.0867 65.4451 79.9783 65.0314 79.8917C65.1142 79.6316 65.252 79.3499 65.3348 79.1116C65.6657 79.1983 66.0241 79.2849 66.3826 79.3716C66.4102 79.2849 66.4929 79.1116 66.5205 79.0249C66.1896 78.9382 65.8311 78.8516 65.4726 78.7649L65.8035 77.9848C66.2172 78.0932 66.6308 78.2015 67.072 78.2882L67.1823 77.9415C66.6032 77.8115 66.0793 77.6598 65.5002 77.5298ZM68.0923 77.7898C68.1199 78.7432 68.1474 79.675 68.2302 80.6284C68.5886 80.6067 68.7541 80.455 68.6714 80.1733C68.8644 80.1517 69.0574 80.1083 69.2505 80.0867C69.3608 80.3467 69.6089 80.4334 69.9398 80.325C69.4986 79.4583 68.9747 78.6132 68.5059 77.7898C68.4232 77.7681 68.2302 77.7898 68.0923 77.7898Z" fill="black"/>
<path d="M68.6163 78.8299C68.7818 79.1333 68.9472 79.4149 69.1127 79.6966C68.9748 79.7183 68.7266 79.7616 68.6163 79.7833C68.6439 79.4799 68.6163 79.1549 68.6163 78.8299ZM28.1082 83.7053C28.8527 84.5937 29.5145 85.5038 30.1212 86.4789C29.6248 86.6522 29.1009 86.7822 28.577 86.8906C28.384 85.8288 28.0806 84.7671 28.1082 83.7053Z" fill="black"/>
<path d="M114.391 12.5677C120.927 10.8126 127.462 9.05742 133.997 7.32394C134.08 20.8667 133.859 34.4095 133.859 47.9523C127.545 49.5991 121.23 51.3976 114.833 52.9577C114.75 39.5016 114.502 26.0455 114.391 12.5677ZM92.7999 18.2015C99.1422 16.4897 105.485 14.8212 111.827 13.1311C112.047 25.7855 112.24 38.5049 112.158 51.1593C105.622 44.7454 99.3077 38.1798 92.855 31.701C92.7999 27.2156 92.7999 22.7302 92.7999 18.2015ZM71.2084 24.052C74.1038 23.3153 76.9992 22.4485 79.8946 21.7985C90.4836 32.4594 101.045 43.1419 111.579 53.8462C105.264 55.6013 98.894 57.2698 92.5241 58.9599C90.649 57.0314 88.8566 55.1029 86.9815 53.1961C81.8801 54.5396 76.8062 55.9697 71.6772 57.2264C71.6496 54.5829 71.5945 51.9177 71.5669 49.2741C74.6278 48.4074 77.7438 47.584 80.8046 46.7389C77.6886 43.4453 74.4623 40.2167 71.4014 36.8797C71.2911 32.611 71.3187 28.3207 71.2084 24.052ZM50.0582 29.7291C56.2902 28.0823 62.4946 26.3922 68.7266 24.7671C68.9472 37.2481 69.0575 49.7291 69.2782 62.2102C69.2506 62.4702 69.3884 62.7952 69.0575 62.9469C62.8531 56.7281 56.6211 50.5525 50.4994 44.2904C50.3339 39.4583 50.196 34.5829 50.0582 29.7291ZM14.8997 39.1766C21.4626 37.4431 27.9979 35.6663 34.5608 33.9762C34.5884 47.519 34.4505 61.0401 34.3954 74.6046C28.0255 76.3164 21.6832 78.0065 15.3133 79.675C15.0927 66.1755 15.01 52.6761 14.8997 39.1766ZM37.0702 34.2145C37.4011 34.2795 37.5941 34.4962 37.7872 34.6912C47.9349 44.9404 58.2205 55.1029 68.313 65.3955C61.9983 67.1073 55.656 68.7757 49.3412 70.4659C45.1773 66.2405 41.0135 62.0152 36.9323 57.7465C36.9599 49.9242 37.015 42.0802 37.0702 34.2145Z" fill="#FFF200"/>
</svg>
