<svg width="145" height="56" viewBox="0 0 145 56" fill="#994ff3" xmlns="http://www.w3.org/2000/svg">
<line y1="2.5" x2="50" y2="2.5" stroke="black" stroke-width="5"/>
<line x1="2.5" x2="2.5" y2="50" stroke="black" stroke-width="5"/>
<line x1="144.002" y1="52.5" x2="94.0015" y2="52.5304" stroke="black" stroke-width="5"/>
<line x1="141.503" y1="55.0015" x2="141.473" y2="5.00153" stroke="black" stroke-width="5"/>
<path d="M40.552 39.624V41H17V39.624H24.104C22.4187 38.6213 21.0853 37.256 20.104 35.528C19.144 33.8 18.664 31.848 18.664 29.672C18.664 26.3867 19.7947 23.6347 22.056 21.416C24.3387 19.1973 27.208 18.088 30.664 18.088C34.1413 18.088 37.0427 19.368 39.368 21.928L36.968 24.552C35.9013 23.528 34.888 22.8133 33.928 22.408C32.9893 22.0027 31.88 21.8 30.6 21.8C28.3387 21.8 26.44 22.536 24.904 24.008C23.368 25.4587 22.6 27.3253 22.6 29.608C22.6 31.8693 23.3573 33.768 24.872 35.304C26.408 36.8187 28.2213 37.576 30.312 37.576C31.6133 37.576 32.7333 37.3627 33.672 36.936C34.6107 36.488 35.592 35.784 36.616 34.824L39.048 37.32C38.1093 38.344 37.2133 39.112 36.36 39.624H40.552ZM48.6265 39.624V32.168L40.3065 18.632H44.4345L50.5465 28.808L56.6585 18.632H60.7865L52.4665 32.168V39.624H60.5305V41H40.5625V39.624H48.6265ZM83.1233 39.624V41H60.5312V39.624H63.6353V18.632H72.3393C73.8539 18.632 75.1553 18.8133 76.2433 19.176C77.3526 19.5387 78.1739 20.0293 78.7073 20.648C79.7313 21.8 80.2433 23.1013 80.2433 24.552C80.2433 26.3013 79.6886 27.6027 78.5793 28.456C78.1739 28.7547 77.8966 28.9467 77.7473 29.032C77.5979 29.096 77.3313 29.2133 76.9473 29.384C78.3339 29.6827 79.4326 30.312 80.2433 31.272C81.0753 32.2107 81.4913 33.384 81.4913 34.792C81.4913 36.904 80.6593 38.5147 78.9953 39.624H83.1233ZM67.4113 37.512H73.3313C74.7179 37.512 75.7739 37.2987 76.4993 36.872C77.2459 36.424 77.6193 35.592 77.6193 34.376C77.6193 32.392 76.0299 31.4 72.8513 31.4H67.4113V37.512ZM67.4113 27.912H72.2113C74.9419 27.912 76.3073 26.984 76.3073 25.128C76.3073 24.0613 75.9766 23.2933 75.3153 22.824C74.6539 22.3547 73.6299 22.12 72.2433 22.12H67.4113V27.912ZM86.229 39.624V18.632H101.941V22.184H90.005V28.104H100.725V31.464H90.005V37.448H102.325V39.624H105.429V41H83.125V39.624H86.229ZM128.159 39.624V41H121.247L115.903 33.48H110.943V41H104.062V39.624H107.167V18.632H115.487C118.9 18.632 121.343 19.208 122.815 20.36C124.287 21.512 125.023 23.3573 125.023 25.896C125.023 29.5867 123.412 31.912 120.191 32.872L125.055 39.624H128.159ZM115.647 30.056C117.78 30.056 119.231 29.7253 119.999 29.064C120.767 28.4027 121.151 27.3467 121.151 25.896C121.151 24.424 120.756 23.4213 119.967 22.888C119.177 22.3333 117.769 22.056 115.743 22.056H110.943V30.056H115.647Z" fill="black"/>
</svg>
